<svg xmlns="http://www.w3.org/2000/svg" version="1.1" xmlns:xlink="http://www.w3.org/1999/xlink" xmlns:svgjs="http://svgjs.dev/svgjs" width="2000" height="1247" viewBox="0 0 2000 1247"><g transform="matrix(1,0,0,1,-1.2121212121212466,0.504858299595071)"><svg viewBox="0 0 396 247" data-background-color="#ffffff" preserveAspectRatio="xMidYMid meet" height="1247" width="2000" xmlns="http://www.w3.org/2000/svg" xmlns:xlink="http://www.w3.org/1999/xlink"><g id="tight-bounds" transform="matrix(1,0,0,1,0.2400000000000091,-0.09999999999999432)"><svg viewBox="0 0 395.52 247.2" height="247.2" width="395.52"><g><svg></svg></g><g><svg viewBox="0 0 395.52 247.2" height="247.2" width="395.52"><g><path d="M55.039 247.2l47.898-82.961 0 32.521-19.219 33.288h228.084l-19.219-33.288v-32.521l47.898 82.961zM197.76 0l26.403 45.732h-18.776l-7.627-13.211-7.627 13.211-18.776 0z" fill="#0e5ddd" fill-rule="nonzero" stroke="none" stroke-width="1" stroke-linecap="butt" stroke-linejoin="miter" stroke-miterlimit="10" stroke-dasharray="" stroke-dashoffset="0" font-family="none" font-weight="none" font-size="none" text-anchor="none" style="mix-blend-mode: normal" data-fill-palette-color="tertiary"></path></g><g transform="matrix(1,0,0,1,125.1846857386781,67.97999999999999)"><svg viewBox="0 0 145.15062852264379 111.24" height="111.24" width="145.15062852264379"><g><svg viewBox="0 0 145.15062852264379 111.24" height="111.24" width="145.15062852264379"><g><svg viewBox="0 0 145.15062852264379 111.24" height="111.24" width="145.15062852264379"><g id="textblocktransform"><svg viewBox="0 0 145.15062852264379 111.24" height="111.24" width="145.15062852264379" id="textblock"><g><svg viewBox="0 0 145.15062852264379 111.24" height="111.24" width="145.15062852264379"><g transform="matrix(1,0,0,1,0,0)"><svg width="145.15062852264379" viewBox="-4.274369999999998 -3.1524 37.63942 28.845950000000002" height="111.24" data-palette-color="#0e5ddd"><path d="M21.75 0.954l-14.112 19.45c-1.723 2.374-3.542 3.792-5.46 4.254-1.915 0.472-4.066 0.394-6.452-0.234v0l1.024-3.778c1.101 0.197 2.01 0.215 2.729 0.053 0.723-0.167 1.383-0.521 1.98-1.06 0.591-0.543 1.285-1.362 2.079-2.457v0l13.995-19.288zM13.251-2.382l5.155-0.216 1.181 28.075-5.155 0.217zM26.329-2.932l5.246-0.22-7.099 13.039 8.889 15.01-5.685 0.239-8.514-14.665z" opacity="1" transform="matrix(1,0,0,1,0,0)" fill="#0e5ddd" class="wordmark-text-0" data-fill-palette-color="primary" id="text-0"></path></svg></g></svg></g></svg></g></svg></g><g></g></svg></g></svg></g></svg></g><defs></defs></svg><rect width="395.52" height="247.2" fill="none" stroke="none" visibility="hidden"></rect></g></svg></g></svg>